<svg width="427" height="427" viewBox="0 0 427 427" fill="none" xmlns="http://www.w3.org/2000/svg">
<path d="M215.5 218L104.5 197.5L35 235L14.5 280L137.5 338L416 319.5V280L366.5 235L309.5 189.5L215.5 218Z" fill="#D9D9D9" stroke="#5D5B5B" stroke-width="4"/>
<path opacity="0.46" d="M398 295C398 317.091 337.232 322 245 322C152.768 322 83.5 296.591 83.5 274.5C83.5 252.409 152.768 242 245 242C337.232 242 398 272.909 398 295Z" fill="#AD9B9B"/>
<path d="M128.5 411L150 381L302 403L128.5 411Z" fill="#828282" stroke="#564E4E" stroke-width="4"/>
<path d="M303.5 403L150.5 382L139.5 338.5L413.5 320.5L378 365L303.5 403Z" fill="#939393" stroke="#564E4E" stroke-width="4"/>
<mask id="path-5-inside-1_2_8" fill="white">
<path fill-rule="evenodd" clip-rule="evenodd" d="M133.931 192.102L103.569 185.843C103.569 185.843 100.85 209.843 97.7823 225.027C95.807 234.802 91.9012 248.205 89.7443 255.339C88.678 256.178 87.6737 257.256 86.8194 258.535C83.8666 262.958 83.8255 268.114 86.7276 270.052C89.122 271.651 92.7718 270.559 95.634 267.644C95.1683 272.438 97.7288 276.693 101.614 277.351C105.097 277.941 106.511 275.147 107.39 271.16C109.385 274.59 113.128 276.423 116.601 275.378C120.773 274.122 120.051 270.479 118.598 265.649C118.343 264.803 118.083 263.977 117.805 263.196C120.202 259.337 130.149 242.803 132.782 230.027C135.779 215.485 133.931 192.102 133.931 192.102Z"/>
</mask>
<path fill-rule="evenodd" clip-rule="evenodd" d="M133.931 192.102L103.569 185.843C103.569 185.843 100.85 209.843 97.7823 225.027C95.807 234.802 91.9012 248.205 89.7443 255.339C88.678 256.178 87.6737 257.256 86.8194 258.535C83.8666 262.958 83.8255 268.114 86.7276 270.052C89.122 271.651 92.7718 270.559 95.634 267.644C95.1683 272.438 97.7288 276.693 101.614 277.351C105.097 277.941 106.511 275.147 107.39 271.16C109.385 274.59 113.128 276.423 116.601 275.378C120.773 274.122 120.051 270.479 118.598 265.649C118.343 264.803 118.083 263.977 117.805 263.196C120.202 259.337 130.149 242.803 132.782 230.027C135.779 215.485 133.931 192.102 133.931 192.102Z" fill="#F69F82"/>
<path d="M103.569 185.843L104.377 181.925L100.087 181.041L99.5945 185.393L103.569 185.843ZM133.931 192.102L137.918 191.787L137.681 188.791L134.738 188.184L133.931 192.102ZM97.7823 225.027L101.703 225.819L101.703 225.819L97.7823 225.027ZM89.7443 255.339L92.2178 258.482L93.2084 257.703L93.5731 256.496L89.7443 255.339ZM86.8194 258.535L90.1462 260.756L90.1462 260.756L86.8194 258.535ZM86.7276 270.052L88.9486 266.725L88.9486 266.725L86.7276 270.052ZM95.634 267.644L99.6152 268.031L100.709 256.766L92.7798 264.841L95.634 267.644ZM101.614 277.351L100.946 281.295L100.946 281.295L101.614 277.351ZM107.39 271.16L110.848 269.149L105.691 260.283L103.484 270.299L107.39 271.16ZM116.601 275.378L115.448 271.548L115.448 271.548L116.601 275.378ZM118.598 265.649L114.767 266.802L114.767 266.802L118.598 265.649ZM117.805 263.196L114.407 261.085L113.389 262.723L114.037 264.539L117.805 263.196ZM132.782 230.027L128.865 229.219L128.865 229.219L132.782 230.027ZM102.761 189.761L133.123 196.02L134.738 188.184L104.377 181.925L102.761 189.761ZM101.703 225.819C103.264 218.092 104.725 208.189 105.79 200.275C106.325 196.305 106.763 192.814 107.067 190.314C107.219 189.063 107.338 188.061 107.419 187.369C107.46 187.024 107.491 186.756 107.512 186.574C107.522 186.483 107.53 186.413 107.535 186.366C107.538 186.343 107.54 186.325 107.541 186.313C107.542 186.306 107.543 186.302 107.543 186.299C107.543 186.297 107.543 186.296 107.543 186.295C107.544 186.294 107.544 186.294 107.544 186.294C107.544 186.294 107.544 186.293 103.569 185.843C99.5945 185.393 99.5945 185.393 99.5945 185.393C99.5945 185.393 99.5944 185.393 99.5944 185.394C99.5943 185.394 99.5942 185.395 99.5941 185.396C99.5938 185.399 99.5933 185.403 99.5927 185.409C99.5915 185.42 99.5895 185.436 99.587 185.459C99.5819 185.503 99.5742 185.57 99.564 185.659C99.5437 185.836 99.5133 186.098 99.4734 186.439C99.3937 187.119 99.2763 188.11 99.1257 189.347C98.8244 191.821 98.3908 195.279 97.862 199.207C96.801 207.089 95.3683 216.777 93.8615 224.235L101.703 225.819ZM93.5731 256.496C95.7284 249.368 99.686 235.801 101.703 225.819L93.8615 224.235C91.9279 233.804 88.0739 247.042 85.9155 254.181L93.5731 256.496ZM90.1462 260.756C90.7756 259.813 91.4956 259.051 92.2178 258.482L87.2708 252.195C85.8604 253.305 84.5717 254.698 83.4927 256.314L90.1462 260.756ZM88.9486 266.725C88.9344 266.716 88.86 266.668 88.7716 266.464C88.6746 266.241 88.5731 265.847 88.5778 265.258C88.5873 264.059 89.04 262.413 90.1462 260.756L83.4927 256.314C81.646 259.08 80.6017 262.224 80.578 265.194C80.5547 268.123 81.5723 271.42 84.5066 273.379L88.9486 266.725ZM92.7798 264.841C91.7427 265.898 90.7037 266.472 89.9313 266.687C89.5561 266.792 89.297 266.798 89.1496 266.782C89.0154 266.768 88.966 266.737 88.9486 266.725L84.5066 273.379C86.9147 274.986 89.7012 275.057 92.0794 274.394C94.4461 273.734 96.663 272.305 98.4881 270.446L92.7798 264.841ZM102.282 273.407C101.172 273.219 99.2751 271.532 99.6152 268.031L91.6527 267.257C91.0614 273.345 94.286 280.167 100.946 281.295L102.282 273.407ZM103.484 270.299C103.288 271.186 103.085 271.901 102.87 272.465C102.651 273.038 102.463 273.337 102.355 273.472C102.27 273.579 102.297 273.509 102.444 273.453C102.588 273.398 102.584 273.458 102.282 273.407L100.946 281.295C102.385 281.538 103.864 281.47 105.281 280.933C106.7 280.395 107.788 279.487 108.601 278.471C110.113 276.583 110.837 274.104 111.296 272.021L103.484 270.299ZM115.448 271.548C114.13 271.944 112.129 271.352 110.848 269.149L103.932 273.171C106.641 277.828 112.125 280.902 117.753 279.208L115.448 271.548ZM114.767 266.802C115.124 267.987 115.395 268.968 115.562 269.811C115.733 270.669 115.754 271.187 115.727 271.474C115.705 271.709 115.67 271.607 115.809 271.442C115.937 271.288 115.951 271.397 115.448 271.548L117.753 279.208C119.337 278.732 120.825 277.914 121.946 276.573C123.077 275.22 123.554 273.671 123.691 272.234C123.937 269.65 123.113 266.774 122.428 264.496L114.767 266.802ZM114.037 264.539C114.282 265.228 114.521 265.982 114.767 266.802L122.428 264.496C122.166 263.625 121.883 262.726 121.572 261.853L114.037 264.539ZM128.865 229.219C127.656 235.084 124.702 242.035 121.63 248.162C118.588 254.228 115.57 259.214 114.407 261.085L121.202 265.307C122.437 263.319 125.591 258.109 128.781 251.748C131.939 245.45 135.276 237.746 136.7 230.834L128.865 229.219ZM133.931 192.102C129.943 192.417 129.943 192.417 129.943 192.417C129.943 192.417 129.943 192.417 129.943 192.417C129.943 192.417 129.943 192.418 129.943 192.419C129.943 192.421 129.944 192.424 129.944 192.429C129.945 192.438 129.946 192.453 129.947 192.474C129.951 192.514 129.955 192.577 129.961 192.66C129.974 192.827 129.991 193.077 130.013 193.402C130.057 194.053 130.116 195.003 130.178 196.192C130.302 198.57 130.438 201.891 130.481 205.657C130.568 213.269 130.272 222.391 128.865 229.219L136.7 230.834C138.29 223.12 138.568 213.28 138.48 205.565C138.436 201.667 138.296 198.234 138.167 195.774C138.103 194.543 138.041 193.553 137.995 192.868C137.972 192.525 137.953 192.259 137.94 192.076C137.933 191.985 137.928 191.914 137.924 191.866C137.922 191.841 137.921 191.823 137.92 191.809C137.919 191.803 137.919 191.798 137.919 191.794C137.919 191.792 137.918 191.79 137.918 191.789C137.918 191.789 137.918 191.788 137.918 191.788C137.918 191.787 137.918 191.787 133.931 192.102Z" fill="#494747" mask="url(#path-5-inside-1_2_8)"/>
<path d="M108.282 200.527C105.782 215.86 100 243 96.7823 251.527" stroke="#FFDFDF" stroke-width="4" stroke-linecap="round"/>
<path d="M75.5 42.5C75.5 50.2011 68.8162 56.5 60.5 56.5C52.1838 56.5 45.5 50.2011 45.5 42.5C45.5 34.7989 52.1838 28.5 60.5 28.5C68.8162 28.5 75.5 34.7989 75.5 42.5Z" fill="#494747" stroke="#494747"/>
<path d="M201.782 110.527C187.782 98.5272 187.309 17.0273 112.282 17.0273C71.5 17.0272 10 58.5 10 81C10 93.5897 19.7823 95.5272 19.7823 95.5272C21.9264 114.824 66.7823 121.527 88.7823 126.027C90.2823 133.027 90.4207 132.468 91.2823 141.027C103.282 260.227 194.575 271.858 292.782 254.527C309.782 251.527 314.782 254.527 323.782 262.527C339.01 276.063 347.095 297.506 314.5 344.501C292.526 376.183 256 399.001 241.5 405.001C233.561 408.286 216 417.501 241.5 417.501C259.445 417.501 297 405.001 336 365.001C390.526 309.076 380.831 257.274 369 221.5C348 158 300.782 134.527 265.782 131.585C230.782 128.643 215.782 122.527 201.782 110.527Z" fill="#F69F82"/>
<path d="M19.7823 95.5272C21.7824 95.5272 117.782 91.0272 159.282 101.027M19.7823 95.5272C21.9264 114.824 66.7823 121.527 88.7823 126.027M19.7823 95.5272C19.7823 95.5272 10 93.5897 10 81C10 58.5 71.5 17.0272 112.282 17.0273C187.309 17.0273 187.782 98.5272 201.782 110.527C215.782 122.527 230.782 128.643 265.782 131.585C300.782 134.527 348 158 369 221.5C380.831 257.274 390.526 309.076 336 365.001C297 405.001 259.445 417.501 241.5 417.501C216 417.501 233.561 408.286 241.5 405.001C256 399.001 292.526 376.183 314.5 344.501C347.095 297.506 339.01 276.063 323.782 262.527C314.782 254.527 309.782 251.527 292.782 254.527C194.575 271.858 103.282 260.227 91.2823 141.027C90.4207 132.468 90.2823 133.027 88.7823 126.027M88.7823 126.027L116.282 133.527" stroke="#494747" stroke-width="4"/>
<path d="M132.5 45.5C132.5 51.5367 127.167 56.5 120.5 56.5C113.833 56.5 108.5 51.5367 108.5 45.5C108.5 39.4633 113.833 34.5 120.5 34.5C127.167 34.5 132.5 39.4633 132.5 45.5Z" fill="#494747" stroke="#494747"/>
<circle cx="46.5" cy="81.5" r="4" fill="#494747" stroke="#494747"/>
<circle cx="30.5" cy="81.5" r="4" fill="#494747" stroke="#494747"/>
<circle cx="116.718" cy="42.9732" r="4.5" fill="#ECECEC"/>
<g style="mix-blend-mode:overlay">
<path d="M145.529 192.027C154.529 206.527 241.5 205.527 282.5 225.027C291.7 228.213 327 248 334 264.5C333.006 266.788 314.5 248 297 252C279.5 256 239 264 172.5 253C158.976 250.763 126.282 225.027 126.282 225.027L106.782 194.527L101 180.5L96.5 161.5L91 124.5C91 124.5 78.7305 122.788 69.5 120.5C63.1431 118.924 54.3337 116.167 48 114.5C29 109.5 20.7823 97.5268 20.7823 97.5268C20.7823 97.5268 82 95.5 118 98C118 98 133.127 98.6814 142.5 100C149.023 100.918 159 103.5 159 103.5C157 114.5 149.5 124.872 137.782 128.027C126 150 142.152 184.384 145.529 192.027Z" fill="#D9D9D9"/>
</g>
<mask id="path-16-inside-2_2_8" fill="white">
<path fill-rule="evenodd" clip-rule="evenodd" d="M178.344 198.007L147.379 190.527C147.379 190.527 148.055 220.454 147.379 235.867C146.84 248.161 144.51 266.469 143.907 271.061C142.44 272.271 141.118 273.975 140.165 276.036C137.742 281.277 138.623 286.841 142.133 288.465C145.307 289.932 149.544 287.675 152.118 283.355C152.242 288.55 153.895 292.825 158.075 292.876C162.518 292.93 164.837 288.009 164.906 282.378C164.925 280.836 164.77 279.306 164.465 277.864C167.528 284.24 170.552 290.024 174.204 288.27C177.857 286.515 178.334 279.923 175.271 273.546C175.161 273.317 175.048 273.092 174.932 272.869C176.019 268.812 181.151 249.08 181.782 235.867C182.487 221.096 178.344 198.007 178.344 198.007Z"/>
</mask>
<path fill-rule="evenodd" clip-rule="evenodd" d="M178.344 198.007L147.379 190.527C147.379 190.527 148.055 220.454 147.379 235.867C146.84 248.161 144.51 266.469 143.907 271.061C142.44 272.271 141.118 273.975 140.165 276.036C137.742 281.277 138.623 286.841 142.133 288.465C145.307 289.932 149.544 287.675 152.118 283.355C152.242 288.55 153.895 292.825 158.075 292.876C162.518 292.93 164.837 288.009 164.906 282.378C164.925 280.836 164.77 279.306 164.465 277.864C167.528 284.24 170.552 290.024 174.204 288.27C177.857 286.515 178.334 279.923 175.271 273.546C175.161 273.317 175.048 273.092 174.932 272.869C176.019 268.812 181.151 249.08 181.782 235.867C182.487 221.096 178.344 198.007 178.344 198.007Z" fill="#F69F82"/>
<path d="M147.379 190.527L148.318 186.639L143.263 185.417L143.38 190.617L147.379 190.527ZM178.344 198.007L182.281 197.3L181.82 194.732L179.283 194.119L178.344 198.007ZM147.379 235.867L143.383 235.692L143.383 235.692L147.379 235.867ZM143.907 271.061L146.453 274.146L147.669 273.143L147.874 271.581L143.907 271.061ZM140.165 276.036L143.796 277.715L143.796 277.715L140.165 276.036ZM142.133 288.465L143.812 284.834L143.812 284.834L142.133 288.465ZM152.118 283.355L156.117 283.26L155.785 269.386L148.682 281.308L152.118 283.355ZM158.075 292.876L158.123 288.876L158.123 288.876L158.075 292.876ZM164.906 282.378L168.906 282.427L168.906 282.427L164.906 282.378ZM164.465 277.864L168.07 276.131L160.551 278.691L164.465 277.864ZM174.204 288.27L172.472 284.664L172.472 284.664L174.204 288.27ZM175.271 273.546L171.665 275.278L171.665 275.278L175.271 273.546ZM174.932 272.869L171.068 271.834L170.665 273.339L171.386 274.721L174.932 272.869ZM181.782 235.867L185.778 236.058L185.778 236.058L181.782 235.867ZM146.44 194.415L177.404 201.895L179.283 194.119L148.318 186.639L146.44 194.415ZM151.375 236.043C151.718 228.219 151.717 216.789 151.632 207.381C151.59 202.663 151.526 198.429 151.474 195.374C151.447 193.847 151.423 192.614 151.406 191.762C151.397 191.336 151.39 191.005 151.386 190.781C151.383 190.669 151.381 190.583 151.38 190.525C151.379 190.496 151.379 190.474 151.379 190.459C151.378 190.452 151.378 190.446 151.378 190.442C151.378 190.441 151.378 190.439 151.378 190.438C151.378 190.438 151.378 190.437 151.378 190.437C151.378 190.437 151.378 190.436 147.379 190.527C143.38 190.617 143.38 190.617 143.38 190.617C143.38 190.618 143.38 190.618 143.38 190.618C143.38 190.619 143.38 190.62 143.38 190.622C143.38 190.625 143.38 190.631 143.381 190.638C143.381 190.652 143.381 190.673 143.382 190.701C143.383 190.758 143.385 190.842 143.387 190.952C143.392 191.174 143.399 191.501 143.408 191.924C143.425 192.769 143.448 193.994 143.475 195.513C143.527 198.552 143.591 202.763 143.633 207.453C143.717 216.862 143.716 228.102 143.383 235.692L151.375 236.043ZM147.874 271.581C148.473 267.012 150.827 248.536 151.375 236.043L143.383 235.692C142.853 247.786 140.547 265.926 139.941 270.541L147.874 271.581ZM141.362 267.975C139.398 269.596 137.72 271.794 136.535 274.357L143.796 277.715C144.517 276.156 145.483 274.947 146.453 274.146L141.362 267.975ZM136.535 274.357C135.036 277.598 134.477 281.099 134.973 284.233C135.465 287.335 137.116 290.551 140.454 292.095L143.812 284.834C143.641 284.755 143.096 284.378 142.875 282.981C142.659 281.617 142.871 279.715 143.796 277.715L136.535 274.357ZM140.454 292.095C143.465 293.488 146.649 292.949 149.19 291.632C151.733 290.315 153.95 288.095 155.554 285.403L148.682 281.308C147.712 282.936 146.523 284.004 145.511 284.529C144.497 285.054 143.975 284.909 143.812 284.834L140.454 292.095ZM148.119 283.451C148.188 286.342 148.678 289.447 150.073 291.976C151.591 294.728 154.248 296.829 158.026 296.875L158.123 288.876C157.793 288.872 157.66 288.797 157.594 288.754C157.502 288.693 157.309 288.531 157.078 288.112C156.571 287.193 156.172 285.563 156.117 283.26L148.119 283.451ZM158.026 296.875C162.023 296.924 164.893 294.626 166.57 291.801C168.18 289.088 168.866 285.698 168.906 282.427L160.906 282.329C160.878 284.689 160.369 286.575 159.691 287.717C159.08 288.746 158.569 288.881 158.123 288.876L158.026 296.875ZM168.906 282.427C168.928 280.589 168.744 278.765 168.378 277.036L160.551 278.691C160.796 279.847 160.922 281.083 160.906 282.329L168.906 282.427ZM160.859 279.596C162.349 282.697 164.054 286.159 165.972 288.592C166.934 289.812 168.214 291.126 169.878 291.904C171.748 292.779 173.882 292.862 175.936 291.875L172.472 284.664C172.701 284.554 173.086 284.573 173.267 284.657C173.279 284.663 173.184 284.619 172.989 284.445C172.795 284.272 172.549 284.013 172.255 283.639C170.982 282.025 169.644 279.406 168.07 276.131L160.859 279.596ZM175.936 291.875C179.611 290.11 181.003 286.28 181.246 282.93C181.497 279.452 180.654 275.515 178.876 271.814L171.665 275.278C172.951 277.954 173.4 280.502 173.266 282.352C173.2 283.27 173 283.89 172.807 284.254C172.629 284.592 172.492 284.654 172.472 284.664L175.936 291.875ZM178.876 271.814C178.747 271.545 178.614 271.28 178.477 271.018L171.386 274.721C171.481 274.904 171.574 275.089 171.665 275.278L178.876 271.814ZM177.787 235.677C177.18 248.389 172.174 267.707 171.068 271.834L178.795 273.905C179.864 269.916 185.123 249.771 185.778 236.058L177.787 235.677ZM178.344 198.007C174.407 198.713 174.407 198.713 174.407 198.713C174.407 198.713 174.407 198.713 174.407 198.713C174.407 198.714 174.407 198.714 174.407 198.715C174.407 198.718 174.408 198.721 174.409 198.726C174.411 198.736 174.413 198.751 174.417 198.771C174.424 198.812 174.435 198.875 174.45 198.958C174.479 199.125 174.522 199.373 174.577 199.696C174.686 200.343 174.843 201.287 175.029 202.468C175.401 204.831 175.891 208.135 176.358 211.892C177.301 219.471 178.122 228.652 177.787 235.677L185.778 236.058C186.148 228.312 185.25 218.562 184.297 210.904C183.816 207.042 183.314 203.651 182.931 201.223C182.74 200.008 182.578 199.033 182.464 198.359C182.407 198.022 182.362 197.76 182.33 197.581C182.315 197.492 182.303 197.423 182.294 197.376C182.29 197.352 182.287 197.334 182.285 197.321C182.283 197.315 182.283 197.31 182.282 197.307C182.282 197.305 182.281 197.304 182.281 197.302C182.281 197.302 182.281 197.301 182.281 197.301C182.281 197.301 182.281 197.3 178.344 198.007Z" fill="#494747" mask="url(#path-16-inside-2_2_8)"/>
<path d="M15.5 77C28 55.5 64 29.5 108 22" stroke="#FFDFDF" stroke-width="6" stroke-linecap="round"/>
<path d="M190.782 100.527C196.616 110.86 210.682 130.127 254.282 134.527C297.882 138.927 314.782 148.027 331.782 167.527" stroke="#FFDFDF" stroke-width="4" stroke-linecap="round"/>
<path d="M152.605 195C153.226 216.787 152.605 257 150 267" stroke="#FFDFDF" stroke-width="4" stroke-linecap="round"/>
<path d="M273 390C317 357.5 335 325 341 294.5C342.574 286.5 340.672 271.897 327.5 259.5C319 251.5 308 246.5 308 246.5" stroke="#FFDFDF" stroke-width="4" stroke-linecap="round"/>
<ellipse cx="167.5" cy="178.5" rx="23.5" ry="28.5" fill="#F69F82"/>
<path d="M194.782 137.027C194.782 140.617 190.977 145.5 186.282 145.5C181.588 145.5 177.782 140.617 177.782 137.027C177.782 133.437 181.588 130.527 186.282 130.527C190.977 130.527 194.782 133.437 194.782 137.027Z" fill="#D86A4E"/>
<path d="M217.985 154.5C217.985 158.09 213.075 164.122 209.485 164.122C205.896 164.122 202.985 158.09 202.985 154.5C202.985 150.91 205.896 148 209.485 148C213.075 148 217.985 150.91 217.985 154.5Z" fill="#D86A4E"/>
<path d="M242.5 144.027C242.5 147.617 237.872 150.527 234.282 150.527C230.692 150.527 226.5 147.617 226.5 144.027C226.5 140.437 230.692 137.527 234.282 137.527C237.872 137.527 242.5 140.437 242.5 144.027Z" fill="#D86A4E"/>
<path d="M267.5 167C267.5 171.418 261.977 176.527 257.282 176.527C252.588 176.527 249 174.418 249 170C249 165.582 252.588 160.527 257.282 160.527C261.977 160.527 267.5 162.582 267.5 167Z" fill="#D86A4E"/>
<path d="M295.782 160.027C295.782 164.169 292.201 167.527 287.782 167.527C283.364 167.527 277 166.142 277 162C277 157.858 283.364 152.527 287.782 152.527C292.201 152.527 295.782 155.885 295.782 160.027Z" fill="#D86A4E"/>
<path d="M309 179.027C309 182.064 308.096 184.527 304.782 184.527C301.469 184.527 298.782 182.064 298.782 179.027C298.782 175.989 301.469 173.527 304.782 173.527C308.096 173.527 309 175.989 309 179.027Z" fill="#D86A4E"/>
<path d="M336 185.5C336 189.09 332.866 192 329 192C325.134 192 322.218 190.563 322.218 186.973C322.218 183.383 325.134 179 329 179C332.866 179 336 181.91 336 185.5Z" fill="#D86A4E"/>
<path d="M344.5 208.5C344.5 212.09 342.648 213.527 338.782 213.527C334.916 213.527 331.5 209.59 331.5 206C331.5 202.41 334.916 200.527 338.782 200.527C342.648 200.527 344.5 204.91 344.5 208.5Z" fill="#D86A4E"/>
<path d="M361 228.5C361 228.5 360.474 232 357.712 232C354.951 232 353.5 231.261 353.5 228.5C353.5 225.739 354.951 224.5 357.712 224.5C360.474 224.5 361 228.5 361 228.5Z" fill="#D86A4E"/>
<path d="M366.5 263.017C366.5 265.778 365.261 266.94 362.5 266.94C359.739 266.94 357.5 265.778 357.5 263.017C357.5 260.256 359.739 259.5 362.5 259.5C365.261 259.5 366.5 260.256 366.5 263.017Z" fill="#D86A4E"/>
<path d="M367 288.527C367 291.288 366.261 292.377 363.5 292.377C360.739 292.377 359 291.288 359 288.527C359 285.765 360.739 285 363.5 285C366.261 285 367 285.765 367 288.527Z" fill="#D86A4E"/>
<path d="M16 338L14 283L139 338L150.5 381L127.5 411L49 391L16 338Z" fill="#B2B2B2" stroke="#5D5B5B" stroke-width="4"/>
<mask id="path-35-inside-3_2_8" fill="white">
<path fill-rule="evenodd" clip-rule="evenodd" d="M283.387 271.849C276.442 262.478 279.168 255.731 282.845 246.626C283.061 246.092 283.28 245.551 283.5 245C287.5 235 290 229 300.34 206.994C294.044 205.996 287.67 203.585 281.65 201.308C269.444 196.691 258.692 192.624 253 202C246.735 212.319 245.371 218.751 241.58 236.623L241.5 237C238.61 250.625 245.956 266.637 255.354 277.997C254.746 279.071 254.245 280.277 253.889 281.581C252.294 287.443 254.247 293.079 258.253 294.17C261.149 294.958 264.325 293.154 266.465 289.878C267.802 292.806 270.078 294.737 272.67 294.75C275.572 294.765 278.102 292.371 279.372 288.853C282.023 291.986 285.588 293.421 288.428 292.153C292.218 290.46 293.282 284.59 290.804 279.044C289.124 275.283 286.247 272.635 283.387 271.849Z"/>
</mask>
<path fill-rule="evenodd" clip-rule="evenodd" d="M283.387 271.849C276.442 262.478 279.168 255.731 282.845 246.626C283.061 246.092 283.28 245.551 283.5 245C287.5 235 290 229 300.34 206.994C294.044 205.996 287.67 203.585 281.65 201.308C269.444 196.691 258.692 192.624 253 202C246.735 212.319 245.371 218.751 241.58 236.623L241.5 237C238.61 250.625 245.956 266.637 255.354 277.997C254.746 279.071 254.245 280.277 253.889 281.581C252.294 287.443 254.247 293.079 258.253 294.17C261.149 294.958 264.325 293.154 266.465 289.878C267.802 292.806 270.078 294.737 272.67 294.75C275.572 294.765 278.102 292.371 279.372 288.853C282.023 291.986 285.588 293.421 288.428 292.153C292.218 290.46 293.282 284.59 290.804 279.044C289.124 275.283 286.247 272.635 283.387 271.849Z" fill="#F69F82"/>
<path d="M283.387 271.849L280.173 274.23L280.995 275.339L282.326 275.705L283.387 271.849ZM282.845 246.626L279.137 245.128L279.137 245.128L282.845 246.626ZM283.5 245L279.786 243.514L279.786 243.514L283.5 245ZM300.34 206.994L303.96 208.695L306.224 203.876L300.966 203.043L300.34 206.994ZM281.65 201.308L280.235 205.049L280.235 205.049L281.65 201.308ZM253 202L256.419 204.076L256.419 204.076L253 202ZM241.58 236.623L245.493 237.453L245.493 237.453L241.58 236.623ZM241.5 237L245.413 237.83L245.413 237.83L241.5 237ZM255.354 277.997L258.835 279.968L260.193 277.57L258.436 275.447L255.354 277.997ZM253.889 281.581L257.749 282.632L257.749 282.632L253.889 281.581ZM258.253 294.17L259.303 290.31L259.303 290.31L258.253 294.17ZM266.465 289.878L270.104 288.217L267.088 281.612L263.117 287.69L266.465 289.878ZM272.67 294.75L272.65 298.75L272.65 298.75L272.67 294.75ZM279.372 288.853L282.425 286.269L277.958 280.991L275.61 287.494L279.372 288.853ZM288.428 292.153L286.796 288.501L286.796 288.501L288.428 292.153ZM290.804 279.044L287.152 280.675L287.152 280.675L290.804 279.044ZM286.601 269.467C283.617 265.441 282.924 262.335 283.123 259.41C283.345 256.173 284.653 252.831 286.554 248.124L279.137 245.128C277.36 249.526 275.467 254.111 275.142 258.865C274.796 263.933 276.212 268.886 280.173 274.23L286.601 269.467ZM286.554 248.124C286.769 247.591 286.991 247.044 287.214 246.486L279.786 243.514C279.569 244.058 279.352 244.593 279.137 245.128L286.554 248.124ZM287.214 246.486C291.177 236.578 293.643 230.652 303.96 208.695L296.72 205.293C286.357 227.348 283.823 233.422 279.786 243.514L287.214 246.486ZM300.966 203.043C295.148 202.121 289.165 199.874 283.065 197.566L280.235 205.049C286.176 207.296 292.941 209.871 299.714 210.944L300.966 203.043ZM283.065 197.566C277.143 195.326 270.824 192.901 265.224 192.421C262.331 192.174 259.36 192.41 256.573 193.616C253.73 194.846 251.385 196.953 249.581 199.924L256.419 204.076C257.461 202.36 258.594 201.458 259.75 200.958C260.961 200.434 262.509 200.218 264.541 200.392C268.791 200.756 273.951 202.672 280.235 205.049L283.065 197.566ZM249.581 199.924C242.918 210.898 241.448 217.968 237.667 235.793L245.493 237.453C249.294 219.534 250.552 213.739 256.419 204.076L249.581 199.924ZM237.667 235.793L237.587 236.17L245.413 237.83L245.493 237.453L237.667 235.793ZM237.587 236.17C234.319 251.575 242.581 268.832 252.272 280.547L258.436 275.447C249.332 264.442 242.9 249.675 245.413 237.83L237.587 236.17ZM251.874 276.025C251.098 277.395 250.471 278.911 250.03 280.531L257.749 282.632C258.018 281.643 258.393 280.747 258.835 279.968L251.874 276.025ZM250.03 280.531C249.048 284.137 249.105 287.842 250.191 290.975C251.269 294.085 253.551 297.035 257.202 298.029L259.303 290.31C258.948 290.213 258.251 289.8 257.75 288.355C257.257 286.932 257.135 284.888 257.749 282.632L250.03 280.531ZM257.202 298.029C262.514 299.475 267.227 296.026 269.814 292.066L263.117 287.69C261.423 290.283 259.784 290.441 259.303 290.31L257.202 298.029ZM262.827 291.54C264.521 295.25 267.904 298.726 272.65 298.75L272.69 290.75C272.252 290.748 271.083 290.362 270.104 288.217L262.827 291.54ZM272.65 298.75C277.971 298.777 281.582 294.508 283.134 290.211L275.61 287.494C274.621 290.233 273.173 290.753 272.69 290.75L272.65 298.75ZM286.796 288.501C286.327 288.71 284.558 288.789 282.425 286.269L276.319 291.437C279.489 295.183 284.849 298.132 290.059 295.805L286.796 288.501ZM287.152 280.675C288.106 282.81 288.299 284.848 288.031 286.33C287.758 287.835 287.132 288.351 286.796 288.501L290.059 295.805C293.514 294.262 295.315 290.996 295.903 287.757C296.494 284.494 295.981 280.824 294.456 277.412L287.152 280.675ZM282.326 275.705C283.747 276.096 285.824 277.702 287.152 280.675L294.456 277.412C292.424 272.863 288.747 269.175 284.448 267.992L282.326 275.705Z" fill="#494747" mask="url(#path-35-inside-3_2_8)"/>
<path d="M254.5 205C247.5 237.5 240.5 242.5 257.5 272" stroke="#FFDFDF" stroke-width="4" stroke-linecap="round"/>
<path d="M300 218.5C296.103 227.801 285.546 234.439 268.985 227.502C252.425 220.565 242.159 207.4 246.055 198.099C249.952 188.797 266.535 186.881 283.096 193.818C299.656 200.756 303.897 209.199 300 218.5Z" fill="#F69F82"/>
</svg>
